<?xml version="1.0" encoding="utf-8"?><svg viewBox="0 0 100 100" xmlns="http://www.w3.org/2000/svg" width="128px" height="128px" xmlns:xlink="http://www.w3.org/1999/xlink" style="width:100%;height:100%;background-color:rgb(255, 255, 255);animation-play-state:paused" ><g class="ldl-scale" style="transform-origin:50% 50% 0px;transform:scale(0.8);animation-play-state:paused" ><path fill="#333" d="M30.7 22.5l.9-.6 1.5-.9c.3-.2.6-.4 1-.5.4-.2.7-.4 1.1-.6.4-.2.9-.4 1.3-.6.4-.2.9-.4 1.3-.5.4-.2.8-.3 1.2-.4.3-.1.7-.2 1-.3.6-.2 1.3-.4 1.9-.5.3-.1.5-.1.8-.2.7-.2 1.4-.3 2.2-.4.2 0 .3 0 .5-.1.7-.1 1.4-.2 2.1-.2h.3V5C37 5.5 27.2 9.8 19.7 16.6l8.2 8.2c.1-.1.3-.2.5-.4.4-.3.8-.6 1.1-.9.4-.4.8-.7 1.2-1z" style="fill:rgb(51, 51, 51);animation-play-state:paused" ></path>
<path fill="#333" d="M47.1 83.4c-.2 0-.5 0-.7-.1-.3 0-.6-.1-.9-.1-.2 0-.5-.1-.7-.1-.3 0-.6-.1-.9-.2-.2 0-.5-.1-.7-.1-.3-.1-.6-.1-1-.2-.2-.1-.4-.1-.6-.1-.4-.1-.7-.2-1-.3-.2-.1-.3-.1-.5-.1-.5-.2-1-.3-1.5-.5-.1-.1-.3-.1-.4-.2-.4-.1-.7-.3-1.1-.4l-.6-.3c-.3-.1-.6-.3-.9-.4L35 80c-.3-.1-.5-.3-.8-.4-.2-.1-.4-.2-.6-.4-.2-.1-.5-.3-.7-.4-.2-.1-.4-.3-.6-.4-.2-.1-.5-.3-.7-.5-.2-.1-.4-.3-.6-.4-.2-.2-.5-.3-.7-.5-.2-.2-.4-.3-.6-.5-.2-.2-.4-.3-.6-.5-.2-.2-.4-.3-.6-.5-.2-.2-.4-.4-.6-.5-.2-.2-.4-.3-.6-.5l-.6-.6-.5-.5-.6-.6c-.2-.2-.3-.4-.5-.6-.2-.2-.4-.4-.5-.6-.2-.2-.3-.4-.5-.6-.2-.2-.3-.4-.5-.6-.2-.2-.3-.4-.5-.6-.2-.2-.3-.4-.5-.7-.1-.2-.3-.4-.4-.6-.2-.2-.3-.5-.4-.7-.1-.2-.3-.4-.4-.6-.1-.2-.3-.5-.4-.7-.1-.2-.2-.4-.4-.7-.1-.2-.3-.5-.4-.7-.1-.2-.2-.5-.3-.7-.1-.3-.2-.5-.3-.8-.1-.2-.2-.5-.3-.7-.1-.3-.2-.5-.3-.8-.1-.2-.2-.5-.3-.7-.1-.3-.2-.5-.3-.8-.1-.2-.2-.5-.2-.7-.1-.3-.2-.6-.2-.9-.1-.2-.1-.5-.2-.7-.1-.3-.1-.6-.2-.9-.1-.2-.1-.5-.2-.7-.1-.3-.1-.6-.2-.9 0-.2-.1-.5-.1-.7 0-.3-.1-.7-.1-1 0-.2-.1-.4-.1-.7 0-.4-.1-.7-.1-1.1v-.6V50v-1.7-.4c0-.4.1-.8.1-1.3v-.4c0-.4.1-.9.2-1.3v-.3c.1-.5.2-1 .3-1.4v-.1c1.2-5.8 3.8-11.1 7.8-15.5l-8.1-8.1C.7 37.2 1.2 64.7 18.3 81.8c.5.5 1 1 1.6 1.5.2.2.4.3.6.5.3.3.7.6 1.1.9.2.2.5.4.7.6.3.3.7.5 1 .8.3.2.5.4.8.6.3.2.6.5 1 .7.3.2.5.4.8.5.3.2.7.4 1 .6.3.2.6.3.8.5.3.2.7.4 1 .6.3.2.6.3.9.5.3.2.7.3 1 .5.3.1.6.3.9.4.3.2.7.3 1 .5.3.1.6.3.9.4.4.1.7.3 1.1.4l.9.3c.4.1.7.2 1.1.4l.9.3c.4.1.8.2 1.1.3.3.1.6.2.9.2l1.2.3c.3.1.6.1.9.2.4.1.8.2 1.2.2.3 0 .6.1.9.1.4.1.9.1 1.3.2.3 0 .5.1.8.1.5 0 1 .1 1.5.1h.7V83.4h-.8z" style="fill:rgb(51, 51, 51);animation-play-state:paused" ></path>
<path fill="#333" d="M20.7 47.1c0 .5-.1.9-.1 1.4V52c0 .3 0 .7.1 1 0 .2 0 .4.1.6 0 .3.1.6.1.9 0 .2.1.4.1.6 0 .3.1.5.1.8 0 .2.1.4.1.6.1.3.1.5.2.8.1.2.1.4.2.6.1.2.1.5.2.7.1.2.1.4.2.6.1.2.2.5.2.7.1.2.2.4.2.6.1.2.2.5.3.7l.3.6c.1.2.2.4.3.7l.3.6.3.6.3.6c.1.2.2.4.4.6.1.2.2.4.4.6.1.2.2.4.4.6.1.2.3.4.4.6.1.2.3.4.4.6.1.2.3.4.4.6.1.2.3.4.4.5.1.2.3.4.4.5.1.2.3.3.4.5l.5.5.5.5.5.5.5.5.5.5c.2.2.3.3.5.4.2.2.4.3.5.5.2.1.4.3.5.4.2.1.4.3.6.4.2.1.4.3.6.4.2.1.4.3.6.4.2.1.4.3.6.4.2.1.4.2.6.4.2.1.5.3.7.4.3.2.6.3.9.5.3.1.5.3.8.4l.6.3c.2.1.5.2.7.3.2.1.4.2.6.2.2.1.5.2.7.3.2.1.4.1.6.2.2.1.5.2.7.2.2.1.4.1.6.2.2.1.5.1.7.2.2.1.4.1.6.2.3.1.5.1.8.2.2 0 .4.1.6.1.3 0 .5.1.8.1.2 0 .4.1.6.1.3 0 .5.1.8.1.2 0 .4 0 .6.1h.5V67.7C38.9 66.7 32 59.1 32 50s7-16.6 15.8-17.7V20.7h-.4c-.3 0-.5 0-.8.1-.2 0-.4 0-.6.1-.3 0-.6.1-.9.1-.1 0-.3.1-.4.1-.3.1-.7.1-1 .2-.1 0-.2 0-.3.1l-1.2.3h-.1c-11.4 3.1-20.2 13.2-21.4 25.4z" style="fill:rgb(51, 51, 51);animation-play-state:paused" ></path>
<path fill="#333" d="M83.3 80.2c7.1-7.8 11.1-17.6 11.6-28.1H83.5c-.5 7.5-3.4 14.4-8.3 20l8.1 8.1z" style="fill:rgb(51, 51, 51);animation-play-state:paused" ></path>
<path fill="#333" d="M79.2 52.1H67.6c-1 8.1-7.4 14.6-15.6 15.6v11.6h.4c.2 0 .5 0 .7-.1.2 0 .4 0 .6-.1.3 0 .6-.1.9-.1.1 0 .2 0 .4-.1 13.1-2.3 23.2-13.3 24.2-26.8z" style="fill:rgb(51, 51, 51);animation-play-state:paused" ></path>
<path fill="#333" d="M52 16.5c.3 0 .6 0 .8.1.2 0 .4 0 .6.1.4 0 .8.1 1.2.1.2 0 .3 0 .5.1.5.1 1.1.2 1.6.3h.1l1.5.3c.2 0 .3.1.5.1.3.1.7.2 1 .3.2.1.4.1.6.2l.9.3c.2.1.4.2.6.2l.9.3.6.3c.3.1.5.2.8.4l.6.3c.3.1.5.3.8.4l.6.3c.3.1.5.3.8.4.2.1.4.2.6.4.2.2.5.3.7.5.2.1.4.3.6.4.2.2.5.3.7.5.2.1.4.3.5.4.2.2.5.4.7.6.2.1.3.3.5.4.3.2.5.4.8.7.1.1.3.2.4.4.4.3.7.7 1 1l.1.1 1 1c.1.1.2.3.4.4.2.3.4.5.7.8.1.2.3.3.4.5.2.2.4.5.6.7.1.2.3.4.4.5.2.2.3.5.5.7.1.2.3.4.4.6.2.2.3.5.5.7.1.2.2.4.4.6.1.2.3.5.4.8l.3.6c.1.3.3.5.4.8l.3.6c.1.3.2.5.4.8l.3.6.3.9c.1.2.2.4.2.6l.3.9c.1.2.1.4.2.6.1.3.2.7.3 1 0 .2.1.3.1.5l.3 1.5v.1c.1.5.2 1.1.3 1.6 0 .2 0 .3.1.5.1.4.1.8.1 1.2 0 .2 0 .4.1.6 0 .3.1.6.1.8H95C93.8 24.7 75.2 6.1 52 5v11.5z" style="fill:rgb(51, 51, 51);animation-play-state:paused" ></path>
<path fill="#333" d="M52 32.3c8.1 1 14.6 7.4 15.6 15.6h11.6v-.5c0-.2 0-.4-.1-.6 0-.3-.1-.6-.1-.9 0-.2 0-.4-.1-.6 0-.3-.1-.6-.2-.9 0-.2-.1-.3-.1-.5-.1-.3-.1-.7-.2-1 0-.1-.1-.3-.1-.4-.1-.4-.2-.9-.4-1.3 0-.1-.1-.3-.1-.4l-.3-.9c-.1-.2-.1-.4-.2-.6-.1-.2-.2-.5-.3-.7l-.3-.6c-.1-.2-.2-.4-.3-.7l-.3-.6-.3-.6-.3-.6-.3-.6-.3-.6c-.1-.2-.2-.4-.4-.6-.1-.2-.2-.4-.4-.6-.1-.2-.3-.4-.4-.5-.1-.2-.3-.4-.4-.5-.1-.2-.3-.4-.4-.5-.1-.2-.3-.4-.4-.5-.1-.2-.3-.3-.4-.5-.1-.2-.3-.3-.4-.5l-.5-.5-.9-.9-.5-.5c-.2-.2-.3-.3-.5-.4-.2-.1-.3-.3-.5-.4-.2-.1-.4-.3-.5-.4-.2-.1-.3-.3-.5-.4-.2-.1-.4-.3-.5-.4-.2-.1-.4-.3-.5-.4-.2-.1-.4-.3-.6-.4-.2-.1-.4-.2-.6-.4l-.6-.3-.6-.3-.6-.3-.6-.3-.6-.3c-.2-.1-.4-.2-.7-.3l-.6-.3c-.2-.1-.5-.2-.7-.3-.2-.1-.4-.1-.6-.2l-.9-.3c-.1 0-.3-.1-.4-.1-.4-.1-.9-.3-1.3-.4-.1 0-.3-.1-.4-.1-.3-.1-.6-.2-1-.2-.2 0-.3-.1-.5-.1-.3-.1-.6-.1-.9-.2H54c-.3 0-.6-.1-.9-.1-.2 0-.4 0-.6-.1H52v11.5z" style="fill:rgb(51, 51, 51);animation-play-state:paused" ></path>
<path fill="#333" d="M71.7 75.4c-.4.3-.8.6-1.1.9l-1.2.9c-.3.2-.7.5-1 .7-.3.2-.7.5-1 .7-.5.3-1 .6-1.5.8l-1.2.6c-.3.2-.6.3-.9.4-.6.3-1.1.5-1.7.7-.4.1-.7.3-1.1.4-.3.1-.7.2-1 .3-.6.2-1.3.4-1.9.5-.3.1-.6.1-.8.2-.7.2-1.4.3-2.2.4-.2 0-.3 0-.5.1-.7.1-1.4.2-2.2.2h-.3V95c10.6-.5 20.5-4.6 28.3-11.8L72.2 75c-.2.2-.3.3-.5.4z" style="fill:rgb(51, 51, 51);animation-play-state:paused" ></path>
<metadata xmlns:d="https://loading.io/stock/" style="animation-play-state:paused" ><d:name style="animation-play-state:paused" >sunburst</d:name>
<d:tags style="animation-play-state:paused" >sunburst,donut chart,pie chart,proportion,ratio,percent,visualization,visualize</d:tags>
<d:license style="animation-play-state:paused" >by</d:license>
<d:slug style="animation-play-state:paused" >k5vd49</d:slug></metadata></g><!-- generated by https://loading.io/ --></svg>
