<?xml version="1.0" encoding="utf-8"?><svg xml:space="preserve" viewBox="0 0 100 100" y="0" x="0" xmlns="http://www.w3.org/2000/svg" id="圖層_1" version="1.1" width="200px" height="200px" xmlns:xlink="http://www.w3.org/1999/xlink" style="width:100%;height:100%;background-color:rgb(241, 242, 243);animation-play-state:paused" ><g class="ldl-scale" style="transform-origin:50% 50% 0px;transform:rotate(0deg) scale(0.8);animation-play-state:paused" ><path fill="#666" clip-rule="evenodd" fill-rule="evenodd" d="M95 64.076c0-6.877-4.478-12.7-10.673-14.736.215-1.436.329-2.906.329-4.402 0-16.283-13.2-29.483-29.483-29.483-13.982 0-25.683 9.737-28.712 22.798-.258-.01-.51-.039-.771-.039C14.263 38.214 5 47.477 5 58.904c0 11.427 9.263 20.69 20.69 20.69h55.862v-.154C89.141 78.426 95 71.943 95 64.076z" style="fill:rgb(162, 216, 149);animation-play-state:paused" ></path>
<path fill="#fff" d="M69.694 64.662c.766 0 1.166-.948.649-1.537L52.224 42.532a.86.86 0 0 0-1.298 0L32.809 63.125c-.517.588-.117 1.537.649 1.537h12.598v15.889c0 .709.551 1.283 1.231 1.283h8.578c.68 0 1.231-.574 1.231-1.283V64.662h12.598z" id="XMLID_7_" style="fill:rgb(212, 236, 201);animation-play-state:paused" ></path>
<metadata xmlns:d="https://loading.io/stock/" style="animation-play-state:paused" ><d:name style="animation-play-state:paused" >upload</d:name>


<d:tags style="animation-play-state:paused" >cloud,arrow,publish,public,post,share,sync,upload,form</d:tags>


<d:license style="animation-play-state:paused" >by</d:license>


<d:slug style="animation-play-state:paused" >hc2ugk</d:slug></metadata></g><!-- generated by https://loading.io/ --></svg>
