<?xml version="1.0" encoding="UTF-8" standalone="no"?>
<svg
   class="svg-icon"
   style="width: 1em; height: 1em;vertical-align: middle;fill: currentColor;overflow: hidden;"
   viewBox="0 0 1024 1024"
   version="1.1"
   id="svg19281"
   sodipodi:docname="upload.svg"
   inkscape:version="1.1.2 (0a00cf5339, 2022-02-04)"
   xmlns:inkscape="http://www.inkscape.org/namespaces/inkscape"
   xmlns:sodipodi="http://sodipodi.sourceforge.net/DTD/sodipodi-0.dtd"
   xmlns="http://www.w3.org/2000/svg"
   xmlns:svg="http://www.w3.org/2000/svg">
  <defs
     id="defs19285" />
  <sodipodi:namedview
     id="namedview19283"
     pagecolor="#ffffff"
     bordercolor="#666666"
     borderopacity="1.0"
     inkscape:pageshadow="2"
     inkscape:pageopacity="0.0"
     inkscape:pagecheckerboard="0"
     showgrid="false"
     inkscape:zoom="0.64"
     inkscape:cx="529.6875"
     inkscape:cy="499.21875"
     inkscape:window-width="1862"
     inkscape:window-height="1136"
     inkscape:window-x="1978"
     inkscape:window-y="27"
     inkscape:window-maximized="1"
     inkscape:current-layer="svg19281" />
  <path
     d="M 788.22773,549.06579 520.54682,314.02236 c -3.15382,-2.41379 -8.08167,-2.41379 -11.2355,0 l -267.4838,235.04343 -0.78846,0.60346 c -3.15381,3.1681 0.19712,7.84483 5.5192,7.84483 H 475.60481 V 993.0535 c 0,3.319 3.54806,6.0345 7.88457,6.0345 h 63.0765 c 4.3365,0 7.88456,-2.7155 7.88456,-6.0345 V 557.51408 h 228.84942 c 5.3221,0 8.87014,-4.67673 5.51921,-7.84483 -0.19711,-0.30173 -0.39423,-0.45259 -0.59134,-0.60346 z"
     fill="#5abe64"
     id="path19277"
     style="stroke-width:1.72444" />
  <path
     d="M 907.5,346.11742 C 871.5,306.47299 822.6,278.59222 768.6,266.64331 757.6,214.40159 728.1,166.6986 684.5,131.2224 636.9,92.504247 575.7,71.2 512.3,71.2 c -63.6,0 -124.9,21.489502 -172.6,60.39291 -43.7,35.75408 -73.2,83.73496 -84,136.34718 -52.6,12.87518 -100.2,41.03384 -135,80.21513 -38.4,43.16425 -59.5,97.72165 -59.5,153.76109 0,64.65376 27.2,125.41718 76.5,171.08237 35.5,32.88264 79.4,55.11316 127.2,65.02426 12.4,2.59357 24.2,-6.20601 24.2,-18.06229 v -0.18526 c 0,-8.70695 -6.6,-16.11712 -15.7,-18.06229 -98.5,-20.65586 -172.3,-102.44564 -172.3,-199.79679 0,-96.70276 74.1,-181.08611 176.2,-200.63044 l 13.9,-2.68619 1.9,-13.06043 C 307.7,184.39039 402,108.15824 512.3,108.15824 c 109.8,0 204,75.86164 219,176.45474 l 2,13.24569 14.2,2.4083 c 105.1,17.69179 181.3,102.44565 181.3,201.55671 0,98.46267 -75.4,180.90085 -175.5,200.44518 -9.3,1.85254 -16,9.35534 -16,18.0623 v 0.18525 c 0,11.67102 11.6,20.4706 24,18.0623 49.3,-9.44797 94.6,-32.049 131,-65.76529 49.3,-45.66519 76.5,-106.42861 76.5,-171.08237 C 968.9,444.9506 947,389.65219 907.5,346.11742 Z"
     fill="#5abe64"
     id="path19279"
     style="stroke-width:0.96243" />
</svg>
