<?xml version="1.0" encoding="UTF-8" standalone="no"?>
<svg
   height="24"
   version="1.1"
   width="24"
   id="svg950"
   sodipodi:docname="user_group.svg"
   inkscape:version="1.1.2 (0a00cf5339, 2022-02-04)"
   xmlns:inkscape="http://www.inkscape.org/namespaces/inkscape"
   xmlns:sodipodi="http://sodipodi.sourceforge.net/DTD/sodipodi-0.dtd"
   xmlns="http://www.w3.org/2000/svg"
   xmlns:svg="http://www.w3.org/2000/svg">
  <defs
     id="defs954" />
  <sodipodi:namedview
     id="namedview952"
     pagecolor="#ffffff"
     bordercolor="#666666"
     borderopacity="1.0"
     inkscape:pageshadow="2"
     inkscape:pageopacity="0.0"
     inkscape:pagecheckerboard="0"
     showgrid="false"
     inkscape:zoom="36.875"
     inkscape:cx="12"
     inkscape:cy="12"
     inkscape:window-width="1858"
     inkscape:window-height="1136"
     inkscape:window-x="1982"
     inkscape:window-y="27"
     inkscape:window-maximized="1"
     inkscape:current-layer="svg950" />
  <path
     d="m 8.4062,12.7 c -2.8856,1.3 -4.9781,4 -5.3437,7.3 0,1.1 0.8329,2 1.9375,2 h 14 c 1.105,0 1.938,-0.9 1.938,-2 C 20.572,16.7 18.479,14 15.594,12.7 14.945,14 13.583,15 12,15 10.417,15 9.0547,14 8.4062,12.7 Z"
     fill="#2c3e50"
     id="path942" />
  <path
     d="M 17,7 A 5,5 0 1 1 7,7 5,5 0 1 1 17,7 Z"
     fill="#34495e"
     id="path944" />
  <path
     d="m 12,11 c -1.277,0 -2.4943,0.269 -3.5938,0.75 -2.8856,1.262 -4.9781,3.997 -5.3437,7.25 0,1.105 0.8329,2 1.9375,2 h 14 c 1.105,0 1.938,-0.895 1.938,-2 C 20.572,15.747 18.479,13.012 15.594,11.75 14.494,11.269 13.277,11 12,11 Z"
     fill="#34495e"
     id="path946" />
</svg>
